<svg xmlns="http://www.w3.org/2000/svg" width="98" height="98" viewBox="0 0 98 98"><g transform="translate(7030.841 9063.73)"><circle cx="49" cy="49" r="49" transform="translate(-7030.841 -9063.73)" fill="#d8f2c6"/><g transform="translate(-7009.282 -9044.064)"><path d="M370.275,77.059a1.876,1.876,0,0,0,1.322.56h.021a1.859,1.859,0,0,0,1.317-.54h0c.048-.047.094-.1.14-.145a4.239,4.239,0,0,0-.012-5.723A4.221,4.221,0,0,0,367,71.075l-.013.013a1.88,1.88,0,0,0,0,2.65ZM368.184,72.3l.011-.011a2.5,2.5,0,0,1,1.769-.728h.056a2.5,2.5,0,0,1,1.793.807,2.528,2.528,0,0,1,.006,3.412c-.027.03-.055.059-.084.087a.173.173,0,0,1-.121.048.184.184,0,0,1-.129-.055L368.2,72.539A.175.175,0,0,1,368.184,72.3Z" transform="translate(-324.831 -62.498)" fill="#557260"/><path d="M169.261,15.878a1.9,1.9,0,0,0,1.519.76,1.871,1.871,0,0,0,1.125-.374h0q.081-.06.16-.125a4.27,4.27,0,0,0,.778-5.711,4.251,4.251,0,0,0-6.034-.969l-.011.008a1.889,1.889,0,0,0-.363,2.637Zm-1.431-5.057a2.524,2.524,0,0,1,1.521-.509,2.6,2.6,0,0,1,.41.033,2.53,2.53,0,0,1,1.686,1.058,2.558,2.558,0,0,1-.466,3.421q-.048.039-.1.076a.187.187,0,0,1-.26-.043L167.8,11.082A.187.187,0,0,1,167.83,10.821Z" transform="translate(-147.199 -8.203)" fill="#557260"/><path d="M286.179,13.884a1.752,1.752,0,0,0,.429-.054,6.518,6.518,0,0,0,4.068-2.674,6.517,6.517,0,0,0,.267-4.861,1.719,1.719,0,0,0-2.082-1.2,6.518,6.518,0,0,0-4.068,2.674,6.518,6.518,0,0,0-.267,4.861A1.718,1.718,0,0,0,286.179,13.884Zm.09-5.263a4.887,4.887,0,0,1,3.008-1.872h.006a.022.022,0,0,1,.021.017,4.887,4.887,0,0,1-.106,3.542,4.887,4.887,0,0,1-3.008,1.872.022.022,0,0,1-.028-.016A4.888,4.888,0,0,1,286.269,8.621Z" transform="translate(-251.91 -5.044)" fill="#557260"/><path d="M79.75,78.818a5.277,5.277,0,0,0,2.985.812,8.893,8.893,0,0,0,1.776-.189,1.705,1.705,0,0,0,1.34-1.97,6.428,6.428,0,0,0-2.33-4.2,6.427,6.427,0,0,0-4.761-.623,1.705,1.705,0,0,0-1.34,1.97A6.428,6.428,0,0,0,79.75,78.818Zm-.644-4.5a7.271,7.271,0,0,1,1.445-.157,3.582,3.582,0,0,1,2.012.521,4.8,4.8,0,0,1,1.609,3.082.008.008,0,0,1-.007.01,4.8,4.8,0,0,1-3.458-.364A4.8,4.8,0,0,1,79.1,74.327.008.008,0,0,1,79.106,74.317Z" transform="translate(-68.606 -64.805)" fill="#557260"/><path d="M254.007,104.128a.854.854,0,0,0,.167-1.686A.854.854,0,1,0,254.007,104.128Z" transform="translate(-224.433 -91.363)" fill="#557260"/><path d="M376.051,30.811a.849.849,0,1,0-.167-1.686A.849.849,0,0,0,376.051,30.811Z" transform="translate(-332.611 -26.372)" fill="#557260"/><path d="M246.695,8.586a.854.854,0,0,0,.167-1.686A.854.854,0,1,0,246.695,8.586Z" transform="translate(-217.952 -6.67)" fill="#557260"/><path d="M119.4,38.138a.854.854,0,0,0,.166-1.686A.854.854,0,1,0,119.4,38.138Z" transform="translate(-105.113 -32.867)" fill="#557260"/><path d="M56.388,147.338H47.622V145.31a1.837,1.837,0,0,0-1.3-1.754,7.76,7.76,0,0,0,3.024-6.146v-1.352a.852.852,0,0,0-1.7,0v1.352a6.073,6.073,0,0,1-6.067,6.067H16.564A6.073,6.073,0,0,1,10.5,137.41V115.452H47.642v16.405a.852.852,0,0,0,1.7,0v-8.649h.6a3.886,3.886,0,0,0,3.728-2.745l.355-1.143H55.56a1.768,1.768,0,0,0,1.766-1.766v-2.04a1.768,1.768,0,0,0-1.766-1.766H39.642l1.027-1.658a1.963,1.963,0,0,0-.628-2.7q-.09-.056-.185-.109a4.482,4.482,0,0,0-6.625,4.467H27l-1.313-4.357a1.96,1.96,0,0,0-2.436-1.315q-.1.031-.2.066a4.493,4.493,0,0,0-2.831,5.364c.022.082.048.162.074.242H2.579a1.768,1.768,0,0,0-1.766,1.766v2.04a1.768,1.768,0,0,0,1.766,1.766H4.114l.355,1.143A3.886,3.886,0,0,0,8.2,123.208h.6v14.2a7.76,7.76,0,0,0,3.024,6.146,1.837,1.837,0,0,0-1.3,1.754v2.028H1.751A1.753,1.753,0,0,0,0,149.089v2.458A1.753,1.753,0,0,0,1.751,153.3h2.21a.852.852,0,1,0,0-1.7H1.751a.048.048,0,0,1-.048-.047v-2.458a.048.048,0,0,1,.048-.047H56.388a.048.048,0,0,1,.047.047v2.458a.048.048,0,0,1-.047.047H7.935a.852.852,0,1,0,0,1.7H56.388a1.753,1.753,0,0,0,1.751-1.751v-2.458A1.753,1.753,0,0,0,56.388,147.338Zm-7.043-31.887H55.56a.062.062,0,0,1,.062.062v2.04a.062.062,0,0,1-.062.062H49.345Zm0,3.867h2.9l-.2.638a2.191,2.191,0,0,1-2.1,1.548h-.6Zm-13.978-7.661a2.79,2.79,0,0,1,3.66-.888q.059.033.116.068a.257.257,0,0,1,.077.355l-1.583,2.555H34.955A2.767,2.767,0,0,1,35.367,111.658Zm-13.5,1.411a2.781,2.781,0,0,1,1.752-3.32q.063-.022.127-.041a.254.254,0,0,1,.314.175l1.164,3.865H22.146A2.787,2.787,0,0,1,21.864,113.069ZM8.794,121.5H8.2a2.191,2.191,0,0,1-2.1-1.548l-.2-.638h2.9Zm0-3.889H2.579a.062.062,0,0,1-.062-.062v-2.04a.062.062,0,0,1,.062-.062H8.794Zm37.125,29.722H12.22V145.31a.13.13,0,0,1,.13-.13H45.789a.13.13,0,0,1,.13.13v2.028Z" transform="translate(0 -96.304)" fill="#557260"/></g></g></svg>